# xmcd
#
# Track frame offsets:
#	150
#	3523
#	7143
#	10795
#	15270
#	21079
#	27512
#	32004
#	38429
#	44330
#	48291
#	52934
#	57248
#	63502
#	68307
#	73887
#	81064
#	89235
#	95972
#	100475
#	105669
#	110923
#	117102
#	123749
#
# Disc length: 1736 seconds
#
# Revision: 1
# Processed by: cddbd v1.5.2PL0 Copyright (c) Steve Scherf et al.
# Submitted via: EZCDAudioConverter 4.0.2.1
#
DISCID=4106c618
DTITLE=트니트니 2017년 08월 - 트니트니 할로윈
DYEAR=1900
DGENRE=
TTITLE0=트니트니 2017년 08월 - 트니트니 월드
TTITLE1=알 수 없는 음악가 - 트니맨
TTITLE2=알 수 없는 음악가 - 만나서 반가워요
TTITLE3=알 수 없는 음악가 - 파이팅
TTITLE4=알 수 없는 음악가 - 스파이더
TTITLE5=알 수 없는 음악가 - 호박등불
TTITLE6=알 수 없는 음악가 - 요술 빗자루
TTITLE7=알 수 없는 음악가 - 고깔모자
TTITLE8=알 수 없는 음악가 - 분리수거
TTITLE9=알 수 없는 음악가 - 될 줄이야
TTITLE10=알 수 없는 음악가 - 페트병 로케트(로켓)
TTITLE11=알 수 없는 음악가 - 왕 딱지
TTITLE12=알 수 없는 음악가 - 택배 아저씨
TTITLE13=알 수 없는 음악가 - 옮겨라 옮겨
TTITLE14=알 수 없는 음악가 - 거의 다 온 것 같은데
TTITLE15=알 수 없는 음악가 - 언제쯤 오실까
TTITLE16=알 수 없는 음악가 - 거불이 징검다리
TTITLE17=알 수 없는 음악가 - 몬스터 펌핑카
TTITLE18=알 수 없는 음악가 - 펀치 팡팡
TTITLE19=알 수 없는 음악가 - 비타민 주세요
TTITLE20=알 수 없는 음악가 - 축복송
TTITLE21=알 수 없는 음악가 - 다음에 또 만나요
TTITLE22=알 수 없는 음악가 - 좋아좋아
TTITLE23=알 수 없는 음악가 - 옥수수
EXTD=
EXTT0=
EXTT1=
EXTT2=
EXTT3=
EXTT4=
EXTT5=
EXTT6=
EXTT7=
EXTT8=
EXTT9=
EXTT10=
EXTT11=
EXTT12=
EXTT13=
EXTT14=
EXTT15=
EXTT16=
EXTT17=
EXTT18=
EXTT19=
EXTT20=
EXTT21=
EXTT22=
EXTT23=
PLAYORDER=
